
<svg viewBox="0 0 228 66" fill="none" xmlns="http://www.w3.org/2000/svg">
<path d="M80.9584 63.3337V33.3362C80.9584 28.1058 82.8373 23.619 86.5952 19.8757C90.3531 16.1324 94.8575 14.2608 100.108 14.2608C105.411 14.2608 109.915 16.1324 113.621 19.8757C117.379 23.5677 119.258 28.0545 119.258 33.3362V63.3337H111.073V33.3362C111.073 30.362 109.992 27.7981 107.83 25.6445C105.668 23.4908 103.094 22.414 100.108 22.414C97.1225 22.414 94.5486 23.4908 92.3865 25.6445C90.2244 27.7981 89.1434 30.362 89.1434 33.3362V63.3337H80.9584Z" fill="url(#paint0_linear_2407_73396)"/>
<path d="M131.949 21.491C136.788 16.6708 142.605 14.2608 149.401 14.2608C156.196 14.2608 161.987 16.6708 166.774 21.491C171.613 26.2598 174.033 32.0286 174.033 38.7973C174.033 40.0792 173.904 41.4381 173.647 42.8738H137.432V34.7207H165.307C164.432 31.1312 162.502 28.1827 159.516 25.8752C156.582 23.5677 153.21 22.414 149.401 22.414C144.768 22.414 140.855 24.0292 137.664 27.2597C134.523 30.4902 132.953 34.3361 132.953 38.7973C132.953 43.2584 134.523 47.1043 137.664 50.3348C140.855 53.514 144.768 55.1036 149.401 55.1036C154.188 55.1036 158.178 53.3858 161.369 49.9502H171.33C169.22 54.0012 166.208 57.2573 162.296 59.7186C158.384 62.1287 154.085 63.3337 149.401 63.3337C142.605 63.3337 136.788 60.9493 131.949 56.1805C127.162 51.3603 124.768 45.5659 124.768 38.7973C124.768 32.0286 127.162 26.2598 131.949 21.491Z" fill="url(#paint1_linear_2407_73396)"/>
<path d="M227.727 38.7973C227.727 45.5659 225.307 51.3603 220.468 56.1805C215.681 60.9493 209.889 63.3337 203.094 63.3337C196.299 63.3337 190.482 60.9493 185.643 56.1805C180.856 51.3603 178.462 45.5659 178.462 38.7973C178.462 32.0286 180.856 26.2598 185.643 21.491C190.482 16.6708 196.299 14.2608 203.094 14.2608C207.624 14.2608 211.82 15.3889 215.681 17.6451V28.2596C212.386 24.3625 208.191 22.414 203.094 22.414C198.564 22.414 194.678 24.0036 191.434 27.1828C188.243 30.362 186.647 34.2335 186.647 38.7973C186.647 43.3097 188.243 47.1555 191.434 50.3348C194.678 53.514 198.564 55.1036 203.094 55.1036C207.624 55.1036 211.485 53.514 214.677 50.3348C217.869 47.1555 219.464 43.3097 219.464 38.7973V0.646484H227.727V38.7973Z" fill="url(#paint2_linear_2407_73396)"/>
<path d="M51.1615 49.3952C50.6806 48.9161 50.161 48.5009 49.6121 48.1444C49.5038 48.0621 49.3937 47.978 49.2762 47.8902C48.0205 46.9539 46.7832 46.5955 46.5904 46.473C45.1879 45.5952 38.5112 43.5307 30.7587 35.8084C25.1963 30.2676 21.2126 21.5121 20.2893 20.0364C20.1699 19.848 19.632 18.7856 18.7692 17.4982C18.6242 17.2843 18.4737 17.0758 18.3158 16.8673C18.0092 16.4376 17.6641 16.0243 17.2786 15.6403C17.2308 15.5928 17.1813 15.5471 17.1317 15.5014C17.128 15.4977 17.1225 15.4922 17.1189 15.4886C13.3757 11.9245 7.44064 11.9739 3.75991 15.6403C0.0791755 19.3068 0.0296092 25.2187 3.60754 28.9473C3.61121 28.951 3.61672 28.9565 3.62039 28.9601C3.66629 29.0095 3.71218 29.0589 3.75991 29.1064C4.14726 29.4923 4.56031 29.8342 4.99356 30.1414C5.201 30.2969 5.41211 30.4486 5.6269 30.5931C6.91745 31.4544 7.98403 31.9902 8.17495 32.1072C9.65459 33.0288 18.4461 36.9952 24.0085 42.5359C31.7206 50.218 33.8336 56.909 34.7148 58.3061C34.8341 58.4981 35.1939 59.7306 36.1375 60.9814C36.2238 61.0966 36.3083 61.2063 36.3909 61.3142C36.7488 61.861 37.1656 62.3785 37.6465 62.8576C41.3805 66.577 47.4331 66.5752 51.1652 62.8576C54.8973 59.14 54.8955 53.1146 51.1615 49.3952Z" fill="#00ACEA"/>
<path d="M20.8448 55.4708C20.8448 61.0047 16.3412 65.4908 10.7857 65.4908C5.23018 65.4908 0.726562 61.0047 0.726562 55.4708C0.726562 49.9369 5.23018 45.4508 10.7857 45.4508C16.3412 45.4508 20.8448 49.9369 20.8448 55.4708Z" fill="#00ACEA"/>
<path d="M55.1641 23.6425C55.1641 29.1764 50.6605 33.6625 45.105 33.6625C39.5495 33.6625 35.0459 29.1764 35.0459 23.6425C35.0459 18.1087 39.5495 13.6225 45.105 13.6225C50.6605 13.6225 55.1641 18.1087 55.1641 23.6425Z" fill="#00ACEA"/>
<defs>
<linearGradient id="paint0_linear_2407_73396" x1="18.5131" y1="23.4771" x2="199.587" y2="104.835" gradientUnits="userSpaceOnUse">
<stop stop-color="#00ACEA"/>
<stop offset="1" stop-color="#00EFD1"/>
</linearGradient>
<linearGradient id="paint1_linear_2407_73396" x1="18.5131" y1="23.4771" x2="199.587" y2="104.835" gradientUnits="userSpaceOnUse">
<stop stop-color="#00ACEA"/>
<stop offset="1" stop-color="#00EFD1"/>
</linearGradient>
<linearGradient id="paint2_linear_2407_73396" x1="18.5131" y1="23.4771" x2="199.587" y2="104.835" gradientUnits="userSpaceOnUse">
<stop stop-color="#00ACEA"/>
<stop offset="1" stop-color="#00EFD1"/>
</linearGradient>
</defs>
</svg>
