<svg viewBox="0 0 132 30" fill="none" xmlns="http://www.w3.org/2000/svg" data-v-6db8e5a1=""><path d="M19.2602 25.4986C20.9113 24.8389 22.3954 23.8431 23.611 22.5792C25.5677 20.5532 26.6 17.3033 26.6 17.3033C26.5663 17.6485 26.5122 17.9916 26.4382 18.331C26.3317 18.8409 26.1909 19.3435 26.0168 19.8356C25.8303 20.3866 25.6113 20.9269 25.3606 21.4537C25.0685 22.0782 24.723 22.6783 24.3277 23.2475C23.3867 24.5242 22.1917 25.6072 20.8123 26.4334C19.8522 26.9672 18.8267 27.3834 17.7598 27.6722C14.4997 28.5143 7.48278 28.3124 3.30038 23.2158C0.255971 19.5044 0.469572 15.3384 0.525707 14.5422C0.567261 13.9491 0.961665 9.40835 4.87291 5.95858C6.01657 4.95278 7.3306 4.14377 8.75784 3.56681C8.75508 3.18578 8.89283 2.8162 9.14653 2.52419C9.40023 2.23218 9.75333 2.03677 10.1426 1.97291C10.532 1.90904 10.9321 1.98089 11.2716 2.17559C11.611 2.3703 11.8676 2.67517 11.9954 3.03569C12.9606 2.96535 13.7109 2.96113 14.0855 2.99419C14.3072 3.01318 14.5638 3.04413 14.5638 3.04413C15.0528 3.09483 15.5352 3.19219 16.0044 3.33466C16.5922 3.49138 17.1531 3.73005 17.6695 4.04305C18.4437 4.52564 18.5369 4.88226 19.6065 5.52664C19.7217 5.59628 19.8172 5.65045 19.8784 5.68424L20.2969 5.8038C20.4996 5.8615 20.6074 5.89105 20.7 5.91706C20.8742 5.96632 21.1221 6.03805 21.4335 6.13585C21.3583 6.28074 21.2949 6.40174 21.2482 6.48755C21.1535 6.66482 21.0805 6.79641 21.0805 6.80132C20.7395 7.4393 20.2341 7.98191 19.613 8.37709C18.9919 8.77226 16.8909 8.51843 16.0044 8.37709C15.1178 8.23574 12.333 7.49983 9.6779 9.23319C6.48327 11.3189 6.54233 15.0789 6.56276 15.6346C6.58028 16.1257 6.74429 19.1766 9.40011 21.2686C11.3546 22.8079 13.5081 22.9063 14.2744 22.9309C14.8533 22.9492 17.1941 22.9675 19.4504 21.4537C20.4684 20.7763 21.3155 19.8868 21.9292 18.8508C22.5017 17.858 22.8261 16.75 22.8769 15.615C22.9014 14.8033 22.7781 13.9937 22.5124 13.2232C22.2499 12.5503 21.9004 11.9122 21.472 11.3238C22.3761 14.0674 21.545 16.3184 21.545 16.3184C21.3102 16.9536 21.0033 17.7492 20.2553 18.5427C19.2849 19.5712 17.9465 20.0636 17.4457 20.243C17.0624 20.3772 16.6703 20.4865 16.2719 20.5701C15.9653 20.6304 15.7322 20.6559 15.4117 20.6909L15.3971 20.6925C15.0827 20.7294 14.7661 20.7461 14.4494 20.7425C14.4494 20.7425 15.0479 20.6299 15.6217 20.4857C16.7726 20.187 17.8343 19.6308 18.7207 18.8621C19.1917 18.4478 19.9426 17.771 20.3749 16.6456C20.6543 15.9181 20.6831 15.3097 20.7094 14.7555L20.7095 14.7525C20.7468 13.8726 20.6435 12.9923 20.4033 12.1426C20.1859 11.3692 19.8592 10.6283 19.4323 9.94085L19.893 9.98729C20.6068 10.0817 21.3131 10.2228 22.0072 10.4094C22.7647 10.6133 23.3573 10.778 24.0484 11.1832C24.3626 11.3675 24.6754 11.5511 24.9962 11.8866C25.586 12.5049 25.7711 13.1873 25.8709 13.5749C26.1874 14.8011 25.9279 15.8331 25.7252 16.5998C25.3986 17.8344 24.8635 18.6834 24.4859 19.273C23.9395 20.1277 23.2776 20.9084 22.5175 21.5943C20.6519 23.2658 18.5735 23.9439 17.3779 24.2323C15.7594 24.6583 14.0604 24.7147 12.4154 24.3973C10.7704 24.0798 9.22471 23.3971 7.90055 22.4033C6.09251 21.1371 5.21622 19.7175 4.8182 18.9458C3.61239 16.6089 3.69697 14.2095 3.74871 13.0748C3.76405 12.7462 3.78156 12.5458 3.78156 12.5197C3.43011 13.6853 2.87174 16.1785 3.77349 19.0465C4.01408 19.8124 4.54699 21.4445 6.04152 23.0026C7.74963 24.7831 9.7056 25.4134 10.7802 25.7461C12.0145 26.1282 15.4591 26.9878 19.2602 25.4986Z" fill="white"></path><path d="M49.976 20.492C49.28 21.788 48.32 22.82 47.072 23.54C45.824 24.284 44.432 24.644 42.848 24.644C41.264 24.644 39.848 24.284 38.6 23.54C37.352 22.82 36.392 21.788 35.72 20.492C35.024 19.196 34.688 17.732 34.688 16.1C34.688 14.468 35.024 13.004 35.72 11.708C36.392 10.412 37.352 9.404 38.6 8.66C39.848 7.94 41.264 7.556 42.848 7.556C44.432 7.556 45.824 7.94 47.072 8.66C48.32 9.404 49.28 10.412 49.976 11.708C50.648 13.004 51.008 14.468 51.008 16.1C51.008 17.732 50.648 19.196 49.976 20.492ZM38.192 19.268C38.624 20.204 39.248 20.924 40.064 21.452C40.88 21.98 41.792 22.22 42.848 22.22C43.88 22.22 44.792 21.98 45.608 21.452C46.424 20.924 47.048 20.204 47.504 19.268C47.936 18.332 48.176 17.276 48.176 16.1C48.176 14.948 47.936 13.892 47.504 12.956C47.048 12.02 46.424 11.3 45.608 10.772C44.792 10.244 43.88 9.98 42.848 9.98C41.792 9.98 40.88 10.244 40.064 10.772C39.248 11.3 38.624 12.02 38.192 12.956C37.736 13.892 37.52 14.948 37.52 16.1C37.52 17.276 37.736 18.332 38.192 19.268ZM53.9578 14.492H51.8218V12.212H53.9578V8.78H56.5738V12.212H59.5258V14.492H56.5738V20.9C56.5738 21.38 56.6698 21.74 56.8618 21.932C57.0538 22.124 57.3658 22.22 57.8458 22.22H59.8138V24.5H57.3178C56.1418 24.5 55.2778 24.236 54.7498 23.684C54.2218 23.156 53.9578 22.316 53.9578 21.164V14.492ZM61.2048 8.78H63.7968V12.212H66.7728V14.492H63.7968V20.9C63.7968 21.38 63.8928 21.74 64.0848 21.932C64.2768 22.124 64.5888 22.22 65.0688 22.22H67.0368V24.5H64.5408C63.3648 24.5 62.5248 24.236 61.9968 23.684C61.4688 23.156 61.2048 22.316 61.2048 21.164V8.78ZM68.4772 15.068C68.9812 14.108 69.6772 13.388 70.5892 12.86C71.5012 12.332 72.5332 12.068 73.7092 12.068C74.8852 12.068 75.9172 12.308 76.8292 12.788C77.7412 13.268 78.4372 13.964 78.9652 14.828C79.4932 15.716 79.7572 16.748 79.7812 17.924C79.7812 18.26 79.7572 18.572 79.7092 18.908H70.4452V19.052C70.4932 20.132 70.8292 20.972 71.4532 21.596C72.0532 22.22 72.8692 22.532 73.8772 22.532C74.6692 22.532 75.3412 22.364 75.8932 21.98C76.4212 21.596 76.7812 21.068 76.9732 20.372H79.5652C79.3252 21.62 78.7252 22.652 77.7412 23.444C76.7572 24.26 75.5332 24.644 74.0692 24.644C72.7732 24.644 71.6692 24.404 70.7092 23.876C69.7492 23.348 69.0292 22.628 68.5012 21.668C67.9732 20.732 67.7332 19.628 67.7332 18.38C67.7332 17.132 67.9732 16.028 68.4772 15.068ZM77.1412 17.012C77.0212 16.124 76.6612 15.428 76.0612 14.924C75.4612 14.42 74.7172 14.156 73.8052 14.156C72.9412 14.156 72.2212 14.42 71.5972 14.948C70.9732 15.476 70.6372 16.148 70.5412 17.012H77.1412ZM88.6687 12.212V14.636H87.5167C86.4367 14.636 85.6687 14.996 85.1887 15.692C84.7087 16.388 84.4687 17.276 84.4687 18.332V24.5H81.8767V12.212H84.1807L84.4687 14.06C84.8047 13.484 85.2607 13.052 85.8367 12.716C86.3887 12.38 87.1327 12.212 88.0927 12.212H88.6687ZM92.6662 19.028C92.7382 20.036 93.1462 20.828 93.8662 21.428C94.5862 22.028 95.5462 22.316 96.7222 22.316C97.7302 22.316 98.5702 22.1 99.1942 21.668C99.8182 21.236 100.154 20.612 100.154 19.82C100.154 19.268 99.9622 18.836 99.6262 18.5C99.2902 18.164 98.8102 17.924 98.2342 17.732C97.6342 17.564 96.7942 17.372 95.7382 17.18C94.6342 16.988 93.6982 16.748 92.9302 16.436C92.1622 16.124 91.5142 15.644 91.0342 14.996C90.5542 14.372 90.3142 13.532 90.3142 12.476C90.3142 11.516 90.5542 10.676 91.0582 9.908C91.5622 9.164 92.2582 8.588 93.1702 8.156C94.0822 7.748 95.1142 7.532 96.2902 7.532C97.4902 7.532 98.5462 7.772 99.5062 8.204C100.442 8.66 101.186 9.284 101.738 10.052C102.266 10.844 102.578 11.732 102.626 12.74H99.9142C99.8182 11.876 99.4342 11.18 98.7862 10.652C98.1142 10.124 97.2982 9.86 96.2902 9.86C95.3062 9.86 94.5142 10.076 93.9382 10.508C93.3622 10.94 93.0742 11.516 93.0742 12.284C93.0742 12.836 93.2422 13.268 93.5782 13.58C93.9142 13.916 94.3942 14.156 94.9702 14.3C95.5462 14.468 96.3622 14.636 97.4422 14.828C98.5222 15.02 99.4582 15.284 100.25 15.596C101.018 15.932 101.666 16.388 102.17 17.012C102.65 17.636 102.914 18.476 102.914 19.484C102.914 20.492 102.65 21.38 102.122 22.148C101.594 22.94 100.85 23.564 99.9142 23.996C98.9542 24.428 97.8982 24.644 96.6982 24.644C95.3542 24.644 94.2022 24.404 93.1942 23.924C92.1862 23.444 91.3942 22.796 90.8182 21.932C90.2422 21.068 89.9542 20.084 89.9542 18.98L92.6662 19.028ZM105.368 15.068C105.872 14.108 106.568 13.388 107.48 12.86C108.392 12.332 109.424 12.068 110.6 12.068C111.776 12.068 112.808 12.308 113.72 12.788C114.632 13.268 115.328 13.964 115.856 14.828C116.384 15.716 116.648 16.748 116.672 17.924C116.672 18.26 116.648 18.572 116.6 18.908H107.336V19.052C107.384 20.132 107.72 20.972 108.344 21.596C108.944 22.22 109.76 22.532 110.768 22.532C111.56 22.532 112.232 22.364 112.784 21.98C113.312 21.596 113.672 21.068 113.864 20.372H116.456C116.216 21.62 115.616 22.652 114.632 23.444C113.648 24.26 112.424 24.644 110.96 24.644C109.664 24.644 108.56 24.404 107.6 23.876C106.64 23.348 105.92 22.628 105.392 21.668C104.864 20.732 104.624 19.628 104.624 18.38C104.624 17.132 104.864 16.028 105.368 15.068ZM114.032 17.012C113.912 16.124 113.552 15.428 112.952 14.924C112.352 14.42 111.608 14.156 110.696 14.156C109.832 14.156 109.112 14.42 108.488 14.948C107.864 15.476 107.528 16.148 107.432 17.012H114.032ZM128.247 23.444C127.239 24.26 125.967 24.644 124.431 24.644C123.207 24.644 122.127 24.404 121.215 23.876C120.279 23.348 119.559 22.604 119.055 21.644C118.551 20.684 118.311 19.58 118.311 18.332C118.311 17.084 118.551 16.004 119.079 15.044C119.583 14.108 120.303 13.388 121.239 12.86C122.175 12.332 123.255 12.068 124.503 12.068C126.039 12.068 127.287 12.476 128.271 13.292C129.231 14.108 129.855 15.188 130.095 16.58H127.431C127.239 15.884 126.903 15.332 126.375 14.9C125.847 14.492 125.199 14.276 124.431 14.276C123.375 14.276 122.535 14.66 121.911 15.404C121.287 16.172 120.975 17.132 120.975 18.332C120.975 19.556 121.287 20.54 121.911 21.308C122.535 22.076 123.375 22.436 124.431 22.436C125.223 22.436 125.895 22.244 126.423 21.812C126.951 21.38 127.287 20.804 127.455 20.084H130.095C129.855 21.524 129.231 22.628 128.247 23.444Z" fill="white"></path></svg>