<svg viewBox="0 0 96 16" fill="currentColor" xmlns="http://www.w3.org/2000/svg"><path d="M2.69584 16H0V0H15.6554C16.4493 0 17.1711 0.200837 17.8207 0.60251C18.4703 1.00418 18.99 1.53975 19.3797 2.2092C19.7695 2.87866 19.9644 3.6225 19.9644 4.44073V7.49791C19.9644 8.30869 19.7695 9.05253 19.3797 9.72943C18.99 10.3989 18.4703 10.9344 17.8207 11.3361C17.1711 11.7378 16.4493 11.9386 15.6554 11.9386H2.69584V16ZM15.6554 9.14923C16.1029 9.14923 16.4818 8.98931 16.7922 8.66946C17.1097 8.3496 17.2685 7.95909 17.2685 7.49791V4.44073C17.2685 3.97954 17.1097 3.58903 16.7922 3.26918C16.4818 2.94189 16.1029 2.77824 15.6554 2.77824H2.69584V9.14923H15.6554Z" fill="currentColor"></path><path d="M42.8952 16H39.9829L37.3628 10.9121H25.3885V16H22.6927V0H38.348C39.142 0 39.8638 0.200837 40.5134 0.60251C41.163 1.00418 41.679 1.53975 42.0616 2.2092C42.4513 2.87866 42.6462 3.6225 42.6462 4.44073V6.48257C42.6462 7.3603 42.4152 8.16364 41.9533 8.89261C41.4914 9.62157 40.867 10.1683 40.0803 10.5328L42.8952 16ZM38.348 8.13389C38.7955 8.13389 39.1745 7.97397 39.4848 7.65411C39.8024 7.33426 39.9612 6.94375 39.9612 6.48257V4.44073C39.9612 3.97954 39.8024 3.58903 39.4848 3.26918C39.1745 2.94189 38.7955 2.77824 38.348 2.77824H25.3885V8.13389H38.348Z" fill="currentColor"></path><path d="M48.341 16H45.6452V0H48.341V16Z" fill="currentColor"></path><path d="M66.6922 16H55.216C54.487 16 53.8193 15.8178 53.213 15.4533C52.6067 15.0888 52.1232 14.6016 51.7623 13.9916C51.4014 13.3817 51.2209 12.7085 51.2209 11.9721V11.5927H53.9168V11.9721C53.9168 12.3291 54.0395 12.6267 54.2849 12.8647C54.5375 13.1027 54.8479 13.2218 55.216 13.2218H66.6922C67.0603 13.2218 67.3671 13.1027 67.6125 12.8647C67.8651 12.6267 67.9914 12.3291 67.9914 11.9721V10.6444C67.9914 10.2873 67.8651 9.98977 67.6125 9.75174C67.3671 9.51371 67.0603 9.3947 66.6922 9.3947H55.216C54.487 9.3947 53.8193 9.21246 53.213 8.84798C52.6067 8.4835 52.1232 7.99628 51.7623 7.38633C51.4014 6.77638 51.2209 6.09949 51.2209 5.35565V4.03905C51.2209 3.29521 51.4014 2.61832 51.7623 2.00837C52.1232 1.39842 52.6067 0.911204 53.213 0.546722C53.8193 0.182241 54.487 0 55.216 0H66.6922C67.4284 0 68.0961 0.182241 68.6952 0.546722C69.3015 0.911204 69.785 1.39842 70.1459 2.00837C70.5068 2.61832 70.6873 3.29521 70.6873 4.03905V4.40725H67.9914V4.03905C67.9914 3.68201 67.8651 3.38447 67.6125 3.14644C67.3671 2.90098 67.0603 2.77824 66.6922 2.77824H55.216C54.8479 2.77824 54.5375 2.90098 54.2849 3.14644C54.0395 3.38447 53.9168 3.68201 53.9168 4.03905V5.35565C53.9168 5.71269 54.0395 6.01395 54.2849 6.25941C54.5375 6.49744 54.8479 6.61646 55.216 6.61646H66.6922C67.4284 6.61646 68.0961 6.7987 68.6952 7.16318C69.3015 7.52766 69.785 8.01488 70.1459 8.62483C70.5068 9.22734 70.6873 9.90051 70.6873 10.6444V11.9721C70.6873 12.7085 70.5068 13.3817 70.1459 13.9916C69.785 14.6016 69.3015 15.0888 68.6952 15.4533C68.0961 15.8178 67.4284 16 66.6922 16Z" fill="currentColor"></path><path d="M96 16H93.3042V4.83124L85.942 13.5565H83.636L76.2738 4.83124V16H73.578V0H76.0789L84.7944 10.5774L93.499 0H96V16Z" fill="currentColor"></path></svg>