<svg viewBox="0 0 200 200" fill="none" xmlns="http://www.w3.org/2000/svg"><rect x="5" y="5" width="190" height="190" rx="95" fill="#14181B" stroke="url(#paint0_linear_224_395)" stroke-width="10"></rect><mask id="path-2-inside-1_224_395" fill="white"><path d="M98.9998 39L159 142H138.036L99.0392 75.0555L70.3644 123.563H106.268L117.072 142H39L98.9998 39Z"></path></mask><path d="M98.9998 39L159 142H138.036L99.0392 75.0555L70.3644 123.563H106.268L117.072 142H39L98.9998 39Z" fill="#14181B"></path><path d="M99.0392 75.0555L129.282 57.4382L99.2608 5.90182L68.9099 57.2448L99.0392 75.0555ZM98.9998 39L129.243 21.3827L98.9997 -30.5342L68.7569 21.3828L98.9998 39ZM70.3644 123.563L40.235 105.752L9.01641 158.563H70.3644V123.563ZM159 142V177H219.894L189.243 124.383L159 142ZM39 142L8.75707 124.383L-21.8936 177H39V142ZM117.072 142V177H178.149L147.269 124.304L117.072 142ZM138.036 142L107.793 159.617L117.919 177H138.036V142ZM106.268 123.563L136.465 105.868L126.325 88.5632H106.268V123.563ZM68.7569 56.6173L128.757 159.617L189.243 124.383L129.243 21.3827L68.7569 56.6173ZM76.0711 141.259L86.8752 159.696L147.269 124.304L136.465 105.868L76.0711 141.259ZM100.494 141.374L129.169 92.8662L68.9099 57.2448L40.235 105.752L100.494 141.374ZM106.268 88.5632H70.3644V158.563H106.268V88.5632ZM68.7569 21.3828L8.75707 124.383L69.2429 159.617L129.243 56.6172L68.7569 21.3828ZM39 177H117.072V107H39V177ZM138.036 177H159V107H138.036V177ZM68.7964 92.6728L107.793 159.617L168.279 124.383L129.282 57.4382L68.7964 92.6728Z" fill="url(#paint1_linear_224_395)" mask="url(#path-2-inside-1_224_395)"></path><defs><linearGradient id="paint0_linear_224_395" x1="100" y1="0" x2="100" y2="200" gradientUnits="userSpaceOnUse"><stop stop-color="#FF9696"></stop><stop offset="0.213542" stop-color="#E2EB75"></stop><stop offset="0.421875" stop-color="#53FECD"></stop><stop offset="0.692708" stop-color="#5CD3E0"></stop><stop offset="1" stop-color="#9759FD"></stop></linearGradient><linearGradient id="paint1_linear_224_395" x1="123.812" y1="76.995" x2="39.3831" y2="142.498" gradientUnits="userSpaceOnUse"><stop stop-color="#FF9595"></stop><stop offset="0.244792" stop-color="#FFE763"></stop><stop offset="0.640625" stop-color="#46FFD5"></stop><stop offset="1" stop-color="#9C4DFF"></stop></linearGradient></defs></svg>