<svg viewBox="0 0 309 120" fill="none" xmlns="http://www.w3.org/2000/svg">
<path d="M24.7844 112.321C23.9413 112.321 23.4354 111.646 23.4354 110.972V43.6926C23.2668 40.8261 23.604 30.3716 31.6978 21.9406C34.2271 19.2427 41.3091 13.1724 52.1009 13.0037C62.5553 12.8351 69.8059 18.3996 72.3352 20.7603C75.0332 23.2896 81.2721 30.203 81.6092 41.1633C81.9465 52.2922 75.7076 59.5428 73.1783 62.2408C65.759 69.8287 56.6535 70.6717 53.1126 70.8404C52.438 70.8404 51.7636 70.1658 51.7636 69.4914C51.7636 68.6483 52.2694 68.1424 53.1126 68.1424C56.3162 68.1424 64.5787 67.1307 71.3235 60.386C73.1783 58.5311 79.2485 51.6178 79.0799 41.3319C78.9114 31.2147 72.6725 24.6385 70.6489 22.9523C68.7942 21.2661 62.3866 16.0389 52.7753 16.0389C52.6067 16.0389 52.438 16.0389 52.2694 16.0389C42.4894 16.2075 36.0819 21.772 33.7212 24.1327C26.3019 31.5519 26.1333 40.9946 26.1333 43.6926V110.972C26.1333 111.815 25.6275 112.321 24.7844 112.321Z" fill="#8246FA"/>
<path d="M52.2692 51.9548C46.8734 51.9548 42.4893 47.5707 42.4893 42.1749C42.4893 36.779 46.8734 32.3949 52.2692 32.3949C57.665 32.3949 62.0492 36.779 62.0492 42.1749C62.0492 47.5707 57.665 51.9548 52.2692 51.9548ZM52.2692 34.9241C48.3909 34.9241 45.1871 38.128 45.1871 42.0062C45.1871 45.8844 48.3909 49.0883 52.2692 49.0883C56.1474 49.0883 59.3513 45.8844 59.3513 42.0062C59.3513 38.128 56.1474 34.9241 52.2692 34.9241Z" fill="#8246FA"/>
<path d="M33.8899 88.7139C33.0467 88.7139 32.5408 88.0395 32.5408 87.3651V43.6925C32.5408 42.8493 33.2153 42.3435 33.8899 42.3435C34.5643 42.3435 35.2387 43.0181 35.2387 43.6925V87.3651C35.2387 88.0395 34.5643 88.7139 33.8899 88.7139Z" fill="#8246FA"/>
<path d="M43.6692 102.372C42.826 102.372 42.3202 101.698 42.3202 101.023V77.7539C42.3202 76.9107 42.9946 76.4049 43.6692 76.4049C44.3436 76.4049 45.018 77.0795 45.018 77.7539V101.023C45.1867 101.698 44.5121 102.372 43.6692 102.372Z" fill="#8246FA"/>
<path d="M16.0157 91.412C15.1726 91.412 14.6667 90.7374 14.6667 90.063V60.3859C14.6667 59.5428 15.3412 59.037 16.0157 59.037C16.6902 59.037 17.3647 59.7114 17.3647 60.3859V90.063C17.3647 90.9062 16.8588 91.412 16.0157 91.412Z" fill="#8246FA"/>
<path d="M52.2693 61.735C41.309 61.735 32.5408 52.7981 32.5408 42.0063C32.5408 31.2147 41.309 22.2779 52.2693 22.2779C63.2296 22.2779 71.998 31.2147 71.998 42.0063C71.998 52.7981 63.0611 61.735 52.2693 61.735ZM52.2693 24.9758C42.8266 24.9758 35.2387 32.5636 35.2387 42.0063C35.2387 51.4491 42.8266 59.037 52.2693 59.037C61.7121 59.037 69.3 51.4491 69.3 42.0063C69.3 32.5636 61.5435 24.9758 52.2693 24.9758Z" fill="#8246FA"/>
<path d="M193.742 40.1517H188.009C187.671 40.1517 187.503 40.3202 187.334 40.4888L177.048 53.8098C176.374 54.6529 175.868 55.4961 175.362 56.1705C175.025 55.4961 174.35 54.6529 173.676 53.8098L163.222 40.4888C163.053 40.3202 162.884 40.1517 162.547 40.1517H156.983C156.645 40.1517 156.308 40.3202 156.308 40.6575C156.139 40.9946 156.139 41.3319 156.477 41.5007L172.158 62.0723V80.4518C172.158 80.9576 172.496 81.2949 173.001 81.2949H177.891C178.397 81.2949 178.734 80.9576 178.734 80.4518V61.9035L194.416 41.3319C194.585 40.9946 194.585 40.6575 194.585 40.4888C194.416 40.4888 194.079 40.1517 193.742 40.1517Z" fill="white"/>
<path d="M239.27 40.1517H205.04C204.533 40.1517 204.196 40.4888 204.196 40.9946V45.2102C204.196 45.716 204.533 46.0533 205.04 46.0533H218.867V80.4518C218.867 80.9576 219.204 81.2949 219.711 81.2949H224.6C225.106 81.2949 225.443 80.9576 225.443 80.4518V46.2219H239.27C239.775 46.2219 240.112 45.8847 240.112 45.3789V41.1634C240.112 40.6575 239.775 40.1517 239.27 40.1517Z" fill="white"/>
<path d="M128.148 40.1517H111.961C111.455 40.1517 111.118 40.4888 111.118 40.9946V80.4518C111.118 80.9576 111.455 81.2949 111.961 81.2949H116.851C117.357 81.2949 117.694 80.9576 117.694 80.4518V73.707V71.3463V65.4447V64.433V45.8847H128.654C134.724 45.8847 139.108 49.9315 139.108 55.6646C139.108 61.3977 134.724 65.4447 128.485 65.4447H126.799C126.799 65.4447 126.293 65.4447 126.125 65.7818C125.956 65.9505 125.956 66.2876 125.956 66.2876C125.956 67.6366 125.956 69.1542 125.956 70.5031C125.956 70.5031 125.956 70.8404 126.125 71.1777C126.293 71.3463 126.631 71.3463 126.799 71.3463C127.136 71.3463 127.642 71.3463 127.98 71.3463C128.823 71.3463 137.254 71.8521 142.312 65.4447C145.516 61.3977 145.685 56.6763 145.685 55.6646C146.022 46.5592 138.771 40.1517 128.148 40.1517Z" fill="white"/>
<path d="M260.179 56.5078V40.9946C260.179 40.4888 259.842 40.1517 259.335 40.1517H254.446C253.939 40.1517 253.602 40.4888 253.602 40.9946V80.4518C253.602 80.9576 253.939 81.2949 254.446 81.2949H259.335C259.842 81.2949 260.179 80.9576 260.179 80.4518V62.4094" fill="white"/>
<path d="M287.157 40.1517H282.267C281.76 40.1517 281.423 40.4888 281.423 40.9946V56.5078H268.102C267.765 56.5078 267.428 56.845 267.428 57.1822V61.735C267.428 62.0723 267.765 62.4094 268.102 62.4094H281.423V80.6205C281.423 81.1263 281.76 81.4634 282.267 81.4634H287.157C287.662 81.4634 287.999 81.1263 287.999 80.6205V40.9946C287.999 40.6575 287.662 40.1517 287.157 40.1517Z" fill="white"/>
</svg>
