
<svg viewBox="0 0 768 200" fill="none" xmlns="http://www.w3.org/2000/svg">
<path d="M86.7485 149.673L43.7492 124.842L0.75 149.665L43.7492 174.496L86.7485 149.673Z" fill="url(#paint0_linear_7319_502)"/>
<path fill-rule="evenodd" clip-rule="evenodd" d="M43.7461 174.496L86.7453 199.327L86.7453 149.673L43.7461 174.496Z" fill="#11FA98"/>
<path fill-rule="evenodd" clip-rule="evenodd" d="M129.749 124.85L86.75 149.672L86.75 199.326L172.748 149.672L129.749 124.85Z" fill="url(#paint1_linear_7319_502)"/>
<path fill-rule="evenodd" clip-rule="evenodd" d="M129.749 124.851L86.75 100.02L129.749 75.1978L172.741 100.024L172.748 100.02L172.748 149.674L129.749 124.851Z" fill="url(#paint2_linear_7319_502)"/>
<path d="M0.75 50.3574L0.750017 100.011L43.7494 124.842L86.7486 100.02L43.7492 75.1885L0.75 50.3574Z" fill="url(#paint3_linear_7319_502)"/>
<path d="M86.7486 50.3657L86.7486 0.711914L0.75 50.3573L43.7492 75.1884L86.7486 50.3657Z" fill="url(#paint4_linear_7319_502)"/>
<path fill-rule="evenodd" clip-rule="evenodd" d="M86.75 50.3657L129.749 25.5432L86.75 0.711914L86.75 50.3657Z" fill="#11FA98"/>
<path fill-rule="evenodd" clip-rule="evenodd" d="M172.748 50.3744L129.749 75.1971L86.75 50.366L129.749 25.5435L172.748 50.3744Z" fill="url(#paint5_linear_7319_502)"/>
<path d="M250.165 95.4565C268.666 96.9498 281.692 100.849 281.692 113.626C281.692 125.075 270.823 133.04 250.248 133.04C235.563 133.04 223.616 128.892 214.738 121.342L222.371 112.299C229.506 118.853 238.716 121.923 250.58 121.923C262.361 121.923 268.334 119.683 268.334 114.871C268.334 110.059 262.361 108.731 249.003 107.57C232.41 106.159 216.978 102.509 216.978 90.0636C216.978 77.9506 229.921 71.3133 247.842 71.3133C260.536 71.3133 271.487 74.466 278.871 80.1907L271.57 89.3999C265.182 84.5049 257.3 82.5137 247.842 82.4308C239.96 82.3478 230.336 83.7582 230.336 89.0681C230.336 94.046 238.633 94.5438 250.165 95.4565Z" fill="white"/>
<path d="M324.092 83.8412C337.781 83.8412 344.833 92.5526 344.833 104.749V131.215H331.974V105.578C331.974 98.1114 327.991 94.046 320.358 94.046C313.555 94.046 307.913 97.1987 304.18 103.753V131.215H291.32V69.8199H304.18V93.5482C307.913 87.4917 315.297 83.8412 324.092 83.8412Z" fill="white"/>
<path d="M379.169 83.8412C388.544 83.8412 395.347 87.9065 399.081 92.9675V69.8199H411.941V131.215H399.081V123.831C395.347 128.892 388.544 132.957 379.169 132.957C364.65 132.957 354.528 123.333 354.528 108.399C354.528 93.4653 364.65 83.8412 379.169 83.8412ZM382.405 122.255C389.125 122.255 395.016 120.014 398.998 114.788V102.011C395.016 96.7839 389.125 94.5438 382.405 94.5438C372.449 94.5438 366.807 99.4388 366.807 108.399C366.807 117.36 372.449 122.255 382.405 122.255Z" fill="white"/>
<path d="M489.714 85.5005H502.159L485.565 131.215H472.955L461.173 98.0284L449.309 131.215H436.615L420.105 85.5005H432.799L443.833 117.774L455.283 85.5005H467.147L478.679 117.774L489.714 85.5005Z" fill="white"/>
<path d="M542.347 73.1385C564.25 73.1385 578.271 84.0901 578.271 102.177C578.271 120.263 564.25 131.215 542.347 131.215H511.483V73.1385H542.347ZM541.351 119.932C555.29 119.932 564.748 114.124 564.748 102.177C564.748 90.2296 555.29 84.4219 541.351 84.4219H524.758V119.932H541.351Z" fill="#11FA98"/>
<path d="M600.854 131.215H587.994V85.5005H600.854V94.9587C604.587 88.0725 612.469 84.5049 621.263 84.5049V95.5394C611.307 95.5394 603.592 99.4388 600.854 107.487V131.215Z" fill="#11FA98"/>
<path d="M635.786 80.0247C631.223 80.0247 627.988 77.2868 627.988 73.5534C627.988 69.6539 631.223 66.999 635.786 66.999C640.267 66.999 643.419 69.6539 643.419 73.5534C643.419 77.2868 640.267 80.0247 635.786 80.0247ZM642.341 85.5005V131.215H629.481V85.5005H642.341Z" fill="#11FA98"/>
<path d="M708.832 85.5005L685.934 131.215H672.493L649.511 85.5005H663.367L679.296 119.019L695.226 85.5005H708.832Z" fill="#11FA98"/>
<path d="M723.277 111.303C724.438 119.517 730.661 123.25 741.281 123.25C749.162 123.25 754.14 121.176 758.869 117.36L765.756 124.909C759.367 130.551 751.154 133.04 740.617 133.04C721.783 133.04 710.915 123.582 710.915 108.399C710.915 93.1334 721.701 83.6752 739.704 83.6752C756.297 83.6752 767.415 92.1378 767.415 108.316C767.415 109.81 767.332 110.556 767.083 111.303H723.277ZM739.787 93.4653C731.408 93.4653 725.683 96.618 723.858 103.089L755.136 102.923C753.145 96.3691 747.918 93.4653 739.787 93.4653Z" fill="#11FA98"/>
<path d="M545 175.468C548.092 175.468 550.412 173.003 550.412 169.577C550.412 166.004 547.925 163.664 545 163.664C543.057 163.664 541.762 164.604 540.843 166.004V160.175H539.422V175.218H540.843V173.17C541.72 174.549 543.141 175.468 545 175.468ZM544.896 174.131C542.514 174.131 540.801 172.314 540.801 169.577C540.801 166.652 542.493 165.001 544.875 165.001C547.257 165.001 548.907 167.007 548.907 169.577C548.907 172.272 547.319 174.131 544.896 174.131Z" fill="#EDF1F9"/>
<path d="M556.219 178.749L562.57 163.915H561.003L557.263 172.899L553.44 163.915H551.789L556.469 174.612L554.631 178.749H556.219Z" fill="#EDF1F9"/>
<path d="M670.803 180.715L680.512 157.666H677.2L672.024 170.521L666.752 157.666H663.28L670.32 174.287L667.615 180.715H670.803Z" fill="#EDF1F9"/>
<path d="M729.475 175.618C734.555 175.618 738.477 171.495 738.477 166.463C738.477 161.139 734.555 157.276 729.475 157.276C724.46 157.276 720.506 161.139 720.506 166.463C720.506 171.787 724.46 175.618 729.475 175.618ZM729.508 172.761C726.164 172.761 723.624 170.099 723.624 166.463C723.624 162.827 726.164 160.133 729.508 160.133C732.851 160.133 735.359 162.827 735.359 166.463C735.359 169.904 732.851 172.761 729.508 172.761Z" fill="#EDF1F9"/>
<path d="M603.764 175.618C607.912 175.618 610.469 173.169 611.333 169.807H608.233C607.59 171.463 606.208 172.794 603.764 172.794C601.16 172.794 599.264 171.43 598.46 169.223C598.267 168.638 598.106 167.989 598.074 167.307H611.609C611.705 166.885 611.705 166.333 611.705 165.944C611.705 161.269 608.523 157.276 603.507 157.276C598.942 157.276 594.956 160.977 594.956 166.463C594.956 172.047 598.621 175.618 603.764 175.618ZM598.138 164.872C598.653 162.178 600.614 160.1 603.507 160.1C605.533 160.1 607.076 161.042 607.912 162.632C608.265 163.282 608.523 164.028 608.619 164.872H598.138Z" fill="#EDF1F9"/>
<path d="M640.612 175.618C644.759 175.618 647.317 173.169 648.18 169.807H645.081C644.438 171.463 643.055 172.794 640.612 172.794C638.008 172.794 636.111 171.43 635.307 169.223C635.115 168.638 634.954 167.989 634.922 167.307H648.456C648.553 166.885 648.553 166.333 648.553 165.944C648.553 161.269 645.37 157.276 640.355 157.276C635.79 157.276 631.803 160.977 631.803 166.463C631.803 172.047 635.468 175.618 640.612 175.618ZM634.986 164.872C635.5 162.178 637.461 160.1 640.355 160.1C642.38 160.1 643.923 161.042 644.759 162.632C645.113 163.282 645.37 164.028 645.467 164.872H634.986Z" fill="#EDF1F9"/>
<path d="M687.392 175.618C690.736 175.618 693.115 173.67 693.115 170.716C693.115 168.541 691.925 166.885 689.514 165.749L685.946 164.093C684.788 163.574 684.306 162.925 684.306 162.048C684.306 160.912 685.238 160.068 686.749 160.068C688.409 160.068 689.143 160.661 689.514 162.048H692.508C691.836 158.702 689.897 157.276 686.781 157.276C683.567 157.276 681.413 159.646 681.413 162.146C681.413 164.353 682.57 165.814 685.013 166.95L688.196 168.443C689.578 169.093 690.157 169.872 690.157 170.748C690.157 171.95 689.257 172.826 687.424 172.826C685.27 172.826 684.151 171.367 683.822 169.807H680.795C681.28 173.408 683.822 175.618 687.392 175.618Z" fill="#EDF1F9"/>
<path d="M707.073 175.618C710.545 175.618 713.213 174.157 714.756 171.69V175.228H717.65V163.119H705.851V166.041H714.628C714.274 169.904 711.413 172.534 707.33 172.534C702.347 172.534 698.746 168.671 698.746 163.541C698.746 158.38 702.379 154.549 707.105 154.549C710.191 154.549 713.326 156.477 714.172 160.689H717.65C716.47 154.549 712.28 151.465 707.105 151.465C700.546 151.465 695.37 156.562 695.37 163.541C695.37 170.521 700.514 175.618 707.073 175.618Z" fill="#EDF1F9"/>
<path d="M617.507 175.228V164.694C617.507 162.299 619.43 160.358 621.803 160.358C624.176 160.358 626.099 162.299 626.099 164.694V175.228H629.121V164.661C629.121 160.582 625.845 157.276 621.803 157.276C617.761 157.276 614.485 160.582 614.485 164.661V175.228H617.507Z" fill="#EDF1F9"/>
<path d="M581.644 175.618C585.116 175.618 587.784 174.157 589.327 171.69V175.228H592.221V163.119H580.422V166.041H589.199C588.845 169.904 585.984 172.534 581.901 172.534C576.918 172.534 573.317 168.671 573.317 163.541C573.317 158.38 576.95 154.549 581.676 154.549C584.762 154.549 587.897 156.477 588.743 160.689H592.221C591.041 154.549 586.851 151.465 581.676 151.465C575.117 151.465 569.941 156.562 569.941 163.541C569.941 170.521 575.085 175.618 581.644 175.618Z" fill="#EDF1F9"/>
<path d="M657.088 175.618C660.431 175.618 662.81 173.67 662.81 170.716C662.81 168.541 661.621 166.885 659.209 165.749L655.641 164.093C654.483 163.574 654.001 162.925 654.001 162.048C654.001 160.912 654.934 160.068 656.445 160.068C658.104 160.068 658.839 160.661 659.209 162.048H662.203C661.531 158.702 659.593 157.276 656.477 157.276C653.262 157.276 651.108 159.646 651.108 162.146C651.108 164.353 652.265 165.814 654.709 166.95L657.891 168.443C659.274 169.093 659.852 169.872 659.852 170.748C659.852 171.95 658.952 172.826 657.12 172.826C654.966 172.826 653.846 171.367 653.517 169.807H650.49C650.976 173.408 653.517 175.618 657.088 175.618Z" fill="#EDF1F9"/>
<defs>
<linearGradient id="paint0_linear_7319_502" x1="51.0828" y1="83.6547" x2="94.0102" y2="134.926" gradientUnits="userSpaceOnUse">
<stop stop-color="#EDF1F9"/>
<stop offset="1" stop-color="#A5ACBC"/>
</linearGradient>
<linearGradient id="paint1_linear_7319_502" x1="183.647" y1="145.329" x2="74.4769" y2="207.713" gradientUnits="userSpaceOnUse">
<stop stop-color="#222935"/>
<stop offset="1" stop-color="#EDF1F9"/>
</linearGradient>
<linearGradient id="paint2_linear_7319_502" x1="129.769" y1="37.5755" x2="165.963" y2="153.191" gradientUnits="userSpaceOnUse">
<stop stop-color="#EDF1F9"/>
<stop offset="1" stop-color="#A5ACBC"/>
</linearGradient>
<linearGradient id="paint3_linear_7319_502" x1="10.6748" y1="7.80189" x2="51.785" y2="129.363" gradientUnits="userSpaceOnUse">
<stop stop-color="#EDF1F9"/>
<stop offset="1" stop-color="#A5ACBC"/>
</linearGradient>
<linearGradient id="paint4_linear_7319_502" x1="-26.1887" y1="75.8567" x2="80.0877" y2="-33.2838" gradientUnits="userSpaceOnUse">
<stop stop-color="#222935"/>
<stop offset="1" stop-color="#EDF1F9"/>
</linearGradient>
<linearGradient id="paint5_linear_7319_502" x1="56.0424" y1="-14.175" x2="160.196" y2="10.6425" gradientUnits="userSpaceOnUse">
<stop stop-color="#EDF1F9"/>
<stop offset="1" stop-color="#A5ACBC"/>
</linearGradient>
</defs>
</svg>
