<svg viewBox="0 0 128 128" fill="none" xmlns="http://www.w3.org/2000/svg">
<rect width="128" height="128" rx="64" fill="url(#paint0_radial_2739_24394)"/>
<path d="M71.4458 74.5773L53.2918 74.5773C45.9416 74.5773 41.6178 77.2877 38.0537 80.8518C34.2758 84.6296 33.276 89.2847 33.0467 92.1561C32.9251 93.6799 34.1906 94.835 35.7192 94.835L73.2032 94.835C73.9988 94.835 74.7619 94.5189 75.3245 93.9563L92.7615 76.5193C93.9331 75.3477 93.9331 73.4482 92.7615 72.2767L79.5672 59.0823C77.6773 57.1924 74.4458 58.5309 74.4458 61.2037L74.4458 71.5773C74.4458 73.2341 73.1027 74.5773 71.4458 74.5773Z" fill="white"/>
<path d="M56.4228 53.6019L74.5769 53.6019C81.927 53.6019 86.2509 50.8915 89.815 47.3274C93.5928 43.5496 94.5927 38.8945 94.8219 36.0231C94.9436 34.4993 93.6781 33.3442 92.1494 33.3442L54.6655 33.3442C53.8698 33.3442 53.1067 33.6603 52.5441 34.2229L35.1072 51.6599C33.9356 52.8315 33.9356 54.731 35.1072 55.9025L48.3015 69.0969C50.1914 70.9868 53.4228 69.6483 53.4228 66.9755L53.4228 56.6019C53.4228 54.9451 54.766 53.6019 56.4228 53.6019Z" fill="white"/>
<defs>
<radialGradient id="paint0_radial_2739_24394" cx="0" cy="0" r="1" gradientUnits="userSpaceOnUse" gradientTransform="translate(85.2422 18.0817) rotate(105.191) scale(80.834)">
<stop stop-color="#778DFF"/>
<stop offset="1" stop-color="#1A3EFF"/>
</radialGradient>
</defs>
</svg>
