<svg viewBox="0 0 68 100" fill="none" xmlns="http://www.w3.org/2000/svg">
<path d="M10.784 99.321C9.941 99.321 9.435 98.646 9.435 97.972V30.692C9.267 27.826 9.604 17.372 17.698 8.94101C20.228 6.24301 27.309 0.172009 38.101 0.004009C48.555 -0.164991 55.806 5.40001 58.335 7.76001C61.033 10.29 67.272 17.203 67.609 28.163C67.947 39.293 61.708 46.543 59.179 49.241C51.759 56.829 42.654 57.671 39.113 57.841C38.438 57.841 37.763 57.166 37.763 56.491C37.763 55.648 38.269 55.142 39.113 55.142C42.316 55.142 50.579 54.131 57.323 47.386C59.178 45.531 65.249 38.618 65.08 28.332C64.911 18.215 58.673 11.639 56.649 9.95201C54.794 8.26601 48.387 3.03901 38.775 3.03901H38.269C28.489 3.20701 22.082 8.77201 19.721 11.133C12.301 18.552 12.133 27.995 12.133 30.693V97.972C12.133 98.815 11.628 99.321 10.784 99.321Z" fill="#8246FA"/>
<path d="M38.27 38.955C32.873 38.955 28.49 34.571 28.49 29.175C28.49 23.779 32.873 19.395 38.27 19.395C43.665 19.395 48.05 23.779 48.05 29.175C48.05 34.571 43.665 38.955 38.27 38.955ZM38.27 21.925C34.39 21.925 31.187 25.128 31.187 29.006C31.187 32.884 34.391 36.088 38.269 36.088C42.147 36.088 45.351 32.884 45.351 29.006C45.351 25.128 42.147 21.924 38.269 21.924M19.89 75.714C19.047 75.714 18.54 75.04 18.54 74.365V30.693C18.54 29.849 19.215 29.343 19.89 29.343C20.564 29.343 21.239 30.018 21.239 30.693V74.365C21.239 75.04 20.565 75.714 19.89 75.714ZM29.67 89.372C28.826 89.372 28.32 88.698 28.32 88.023V64.753C28.32 63.911 28.995 63.405 29.67 63.405C30.344 63.405 31.018 64.079 31.018 64.754V88.023C31.187 88.698 30.513 89.372 29.67 89.372ZM2.01602 78.412C1.17302 78.412 0.666016 77.737 0.666016 77.063V47.386C0.666016 46.543 1.34102 46.037 2.01602 46.037C2.69002 46.037 3.36502 46.711 3.36502 47.386V77.063C3.36502 77.906 2.85901 78.412 2.01501 78.412" fill="#8246FA"/>
<path d="M38.27 48.7351C27.309 48.7351 18.54 39.7981 18.54 29.0061C18.54 18.2141 27.309 9.27808 38.27 9.27808C49.231 9.27808 57.998 18.2151 57.998 29.0061C57.998 39.7971 49.062 48.7351 38.27 48.7351ZM38.269 11.9751C36.0307 11.9687 33.8132 12.4049 31.7441 13.2586C29.6749 14.1122 27.7949 15.3665 26.2122 16.9492C24.6294 18.532 23.3752 20.4119 22.5215 22.4811C21.6679 24.5503 21.2317 26.7678 21.238 29.0061C21.238 38.4491 28.826 46.0371 38.268 46.0371C47.71 46.0371 55.3 38.4491 55.3 29.0071C55.3 19.5651 47.544 11.9761 38.27 11.9761" fill="#8246FA"/>
</svg>
