<svg viewBox="0 0 132 98" fill="none" xmlns="http://www.w3.org/2000/svg">
<path d="M13.323 35.15C13.323 14.321 27.786 0.401 50.085 0H131.193C126.356 10.6733 122.461 16.0847 119.51 16.234H49.364C37.22 16.267 29.91 23.327 29.91 35.15C29.91 46.845 37.198 54.406 48.955 54.453L80.017 54.406C84.529 54.453 88.395 58.341 88.395 63.021C88.395 67.702 84.875 70.409 80.448 70.634L49.858 70.669C28.063 70.669 13.658 56.274 13.329 35.863L13.323 35.15Z" fill="#2546F4"/>
<path d="M117.87 62.8501C117.87 83.6791 103.407 97.5991 81.109 98.0001H0C4.838 87.3267 8.73233 81.9154 11.683 81.7661H81.829C93.973 81.7331 101.284 74.6731 101.284 62.8491C101.284 51.1541 93.996 43.5931 82.239 43.5461L51.176 43.5931C46.665 43.5461 42.798 39.6581 42.798 34.9781C42.798 30.2971 46.318 27.5901 50.745 27.3651L81.336 27.3301C103.13 27.3301 117.535 41.7251 117.864 62.1361L117.87 62.8501Z" fill="#2546F4"/>
</svg>
