<svg width="24" height="24" viewBox="0 0 24 24" fill="none" xmlns="http://www.w3.org/2000/svg">
<path d="M21.1068 15.8435C20.9246 15.662 20.7278 15.5047 20.5198 15.3697C20.4788 15.3385 20.4371 15.3066 20.3926 15.2734C19.9169 14.9187 19.4481 14.7829 19.3751 14.7365C18.8438 14.404 16.3145 13.6219 13.3776 10.6964C11.2704 8.59738 9.76121 5.28053 9.41144 4.72149C9.36621 4.65012 9.16243 4.24765 8.83558 3.75994C8.78065 3.67891 8.72363 3.59992 8.66382 3.52094C8.54767 3.35815 8.41693 3.20158 8.27089 3.05611C8.25279 3.03812 8.23403 3.0208 8.21524 3.00349C8.21384 3.00209 8.21176 3 8.21039 2.99864C6.79235 1.64845 4.54397 1.66716 3.14959 3.05611C1.75522 4.44509 1.73644 6.6847 3.09187 8.09721C3.09326 8.09862 3.09535 8.1007 3.09674 8.10206C3.11413 8.12078 3.13151 8.13949 3.14959 8.15749C3.29633 8.30368 3.45281 8.4332 3.61694 8.54958C3.69552 8.60848 3.7755 8.66595 3.85687 8.72069C4.34577 9.04698 4.74982 9.24996 4.82215 9.29428C5.38268 9.64341 8.71318 11.146 10.8204 13.245C13.742 16.1552 14.5424 18.69 14.8763 19.2192C14.9215 19.292 15.0578 19.7589 15.4152 20.2327C15.4479 20.2764 15.4799 20.3179 15.5112 20.3588C15.6468 20.5659 15.8047 20.762 15.9869 20.9435C17.4014 22.3525 19.6944 22.3518 21.1082 20.9435C22.522 19.5351 22.5213 17.2525 21.1068 15.8435Z" fill="#00ACEA"/>
<path d="M9.62141 18.145C9.62141 20.2414 7.91531 21.9409 5.81071 21.9409C3.70611 21.9409 2 20.2414 2 18.145C2 16.0486 3.70611 14.3491 5.81071 14.3491C7.91531 14.3491 9.62141 16.0486 9.62141 18.145Z" fill="#00ACEA"/>
<path d="M22.6229 6.08739C22.6229 8.1838 20.9168 9.88328 18.8122 9.88328C16.7076 9.88328 15.0015 8.1838 15.0015 6.08739C15.0015 3.99102 16.7076 2.2915 18.8122 2.2915C20.9168 2.2915 22.6229 3.99102 22.6229 6.08739Z" fill="#00ACEA"/>
</svg>
