<svg width="235" height="67" viewBox="0 0 235 67" fill="none" xmlns="http://www.w3.org/2000/svg">
<mask id="mask0_3402_42" style="mask-type:luminance" maskUnits="userSpaceOnUse" x="70" y="0" width="95" height="15">
<path d="M164.16 0.344727H70.8364V14.0976H164.16V0.344727Z" fill="white"/>
</mask>
<g mask="url(#mask0_3402_42)">
<path d="M86.515 11.188L83.955 13.9101C83.8995 13.969 83.8327 14.0162 83.758 14.0486C83.6835 14.0809 83.6031 14.0977 83.5218 14.0977H71.3868C71.329 14.0977 71.2723 14.081 71.2238 14.0496C71.1755 14.0183 71.1374 13.9735 71.1142 13.9209C71.0911 13.8683 71.0838 13.8104 71.0936 13.7534C71.1034 13.6967 71.1295 13.6441 71.1688 13.6021L73.7258 10.88C73.7813 10.8211 73.8481 10.7739 73.9228 10.7415C73.9973 10.7091 74.0777 10.6924 74.159 10.6924H86.294C86.3523 10.6912 86.4096 10.7071 86.459 10.7381C86.5082 10.769 86.5472 10.8138 86.571 10.8668C86.5948 10.9197 86.6021 10.9786 86.5921 11.0357C86.5823 11.0927 86.5553 11.1457 86.5155 11.1875L86.515 11.188ZM83.955 5.7055C83.8993 5.64665 83.8323 5.5997 83.758 5.56748C83.6834 5.53506 83.6033 5.51836 83.5218 5.51787H71.3868C71.329 5.51783 71.2723 5.53455 71.2238 5.566C71.1755 5.59729 71.1374 5.64202 71.1142 5.69469C71.0911 5.74725 71.0838 5.8057 71.0936 5.86218C71.1034 5.91886 71.1295 5.97145 71.1688 6.01346L73.7258 8.73702C73.7815 8.79587 73.8485 8.84282 73.9228 8.87504C73.9974 8.90746 74.0775 8.92416 74.159 8.92465H86.294C86.3517 8.92445 86.4082 8.90756 86.4565 8.87603C86.5047 8.84467 86.5426 8.79994 86.5656 8.74734C86.5887 8.69489 86.5957 8.63677 86.5857 8.58034C86.5759 8.52383 86.5498 8.47143 86.5106 8.42955L83.955 5.70599V5.7055ZM71.3868 3.75013H83.5218C83.6033 3.75013 83.6834 3.73343 83.758 3.70101C83.8327 3.6686 83.8995 3.62144 83.955 3.5625L86.515 0.840416C86.5552 0.798491 86.5819 0.745441 86.5916 0.688152C86.6017 0.630987 86.5943 0.572124 86.5705 0.519189C86.5468 0.466009 86.5078 0.421058 86.4585 0.39001C86.4094 0.359066 86.3519 0.342857 86.2935 0.344331H74.159C74.0775 0.344331 73.9974 0.361031 73.9228 0.393448C73.8481 0.425865 73.7813 0.473018 73.7258 0.531959L71.1688 3.25454C71.1295 3.29655 71.1034 3.34914 71.0936 3.40582C71.0838 3.4623 71.0911 3.52075 71.1142 3.57331C71.1374 3.62598 71.1755 3.67071 71.2238 3.702C71.2723 3.73345 71.329 3.75017 71.3868 3.75013ZM101.311 6.16131H94.8183V4.04091H102.998V1.92051H94.7967C94.5162 1.91903 94.2387 1.97208 93.9794 2.07719C93.72 2.1823 93.4838 2.33653 93.2848 2.53202C93.086 2.72719 92.9276 2.9597 92.8187 3.21623C92.7101 3.47218 92.6533 3.74714 92.6517 4.02519V6.17408C92.6527 6.45208 92.7092 6.72714 92.8177 6.98402C92.9265 7.24072 93.0849 7.47341 93.2839 7.66872C93.4835 7.86469 93.7196 8.01955 93.9789 8.12453C94.2388 8.22983 94.5168 8.28306 94.7972 8.28121H101.298V10.4016H92.806V12.522H101.311C101.591 12.5235 101.869 12.4704 102.128 12.3653C102.387 12.2602 102.624 12.106 102.822 11.9105C103.021 11.715 103.18 11.4827 103.289 11.2268C103.397 10.9709 103.454 10.6958 103.456 10.4178V8.26893C103.455 7.99061 103.398 7.71528 103.29 7.45899C103.181 7.20229 103.022 6.9696 102.823 6.77429C102.624 6.57833 102.388 6.42346 102.128 6.31848C101.869 6.21326 101.591 6.15987 101.311 6.16131ZM113.886 1.92051H107.369C107.089 1.91819 106.81 1.97092 106.55 2.07572C106.29 2.18009 106.054 2.33446 105.854 2.53006C105.654 2.72515 105.495 2.95787 105.386 3.21475C105.277 3.47109 105.22 3.7466 105.218 4.02519V10.4173C105.22 10.6958 105.277 10.9711 105.386 11.2273C105.495 11.4842 105.654 11.7169 105.854 11.912C106.054 12.1076 106.29 12.2619 106.55 12.3663C106.81 12.471 107.089 12.5237 107.369 12.5215H113.886C114.167 12.523 114.444 12.4699 114.703 12.3648C114.963 12.2597 115.199 12.1055 115.398 11.91C115.597 11.7145 115.756 11.4822 115.864 11.2263C115.973 10.9704 116.03 10.6953 116.031 10.4173V4.02519C116.03 3.74714 115.973 3.47218 115.864 3.21623C115.755 2.9597 115.597 2.72719 115.398 2.53202C115.199 2.33626 114.963 2.18171 114.703 2.07719C114.444 1.97239 114.166 1.91917 113.886 1.92051ZM113.87 10.4016H107.385V4.04091H113.868L113.87 10.4016ZM136.713 1.92051H130.357C130.077 1.91892 129.799 1.97215 129.539 2.07719C129.28 2.18182 129.044 2.33636 128.845 2.53202C128.646 2.72706 128.487 2.9596 128.378 3.21623C128.27 3.47218 128.213 3.74714 128.211 4.02519V12.522H130.378V9.03959H136.706V12.522H138.873V4.02519C138.871 3.74592 138.814 3.46974 138.705 3.21279C138.595 2.95534 138.435 2.72227 138.235 2.52711C138.033 2.33146 137.796 2.17726 137.535 2.07326C137.274 1.96905 136.994 1.91715 136.713 1.92051ZM136.697 6.9187H130.37V4.04042H136.697V6.9187ZM162.012 1.92051H155.656C155.376 1.91903 155.098 1.97208 154.839 2.07719C154.58 2.18199 154.344 2.33651 154.144 2.53202C153.945 2.72719 153.786 2.9597 153.678 3.21623C153.569 3.47218 153.512 3.74714 153.511 4.02519V12.522H155.678V9.03959H161.991V12.522H164.158V4.02519C164.156 3.74714 164.099 3.47218 163.991 3.21623C163.882 2.9597 163.724 2.72719 163.525 2.53202C163.325 2.33653 163.089 2.18181 162.83 2.07719C162.57 1.97257 162.293 1.91903 162.012 1.92051ZM161.991 6.9187H155.663V4.04042H161.991V6.9187ZM149.424 10.4016H148.558L145.459 2.80904C145.353 2.54725 145.17 2.32278 144.934 2.16413C144.698 2.00578 144.42 1.92101 144.136 1.92051H142.213C142.026 1.91953 141.84 1.95538 141.667 2.02513C141.495 2.09515 141.337 2.19826 141.204 2.32867C141.072 2.45896 140.966 2.61399 140.893 2.78497C140.821 2.95566 140.783 3.13895 140.782 3.32428V12.5215H142.949V4.04091H143.816L146.914 11.6335C147.022 11.8956 147.206 12.1194 147.442 12.2759C147.679 12.4331 147.957 12.5166 148.242 12.5161H150.165C150.352 12.5171 150.538 12.4812 150.71 12.4115C150.883 12.3416 151.041 12.2385 151.174 12.108C151.306 11.9777 151.412 11.8226 151.485 11.6517C151.557 11.481 151.595 11.2977 151.596 11.1123V1.92051H149.424V10.4016ZM120.114 1.92051H117.947V10.4173C117.948 10.6958 118.005 10.9714 118.114 11.2278C118.224 11.4846 118.383 11.7173 118.582 11.9125C118.783 12.1081 119.019 12.2625 119.279 12.3668C119.54 12.4714 119.818 12.524 120.099 12.5215H126.6V10.4011H120.113L120.114 1.92051Z" fill="#191817"/>
</g>
<path d="M139.567 22.1807C139.591 22.3725 139.637 22.5643 139.638 22.7561V32.604C139.638 32.7786 139.599 32.9529 139.579 33.1274H139.424C139.394 33.0055 139.351 32.8852 139.335 32.7613C138.879 29.0071 136.952 26.212 133.595 24.5456C128.921 22.2272 123.361 25.5409 122.997 30.7424C122.743 34.3706 124.263 37.1508 127.158 39.1873C128.776 40.3251 130.519 41.2901 132.235 42.2815C133.942 43.2678 135.676 44.2026 137.232 45.4272C140.685 48.141 142.186 51.6884 141.518 56.0099C140.964 59.594 139.221 62.5439 136.121 64.5739C134.42 65.6891 132.521 66.1339 130.495 66.0478C128.447 65.9607 126.504 65.4166 124.585 64.7353C124.008 64.5311 123.403 64.4149 122.792 64.3907C122.016 64.363 121.598 64.8202 121.51 65.595C121.494 65.7367 121.467 65.8766 121.445 66.0174L121.311 66.0288C121.278 65.9013 121.217 65.7745 121.217 65.6471V55.5478C121.217 55.4228 121.257 55.2977 121.278 55.1724L121.398 55.1585C121.434 55.2461 121.498 55.3328 121.501 55.4215C121.561 56.9845 122.213 58.3213 123.182 59.489C125.343 62.0932 128.061 63.8107 131.441 64.3622C134.866 64.921 138.112 63.1133 139.471 59.9273C140.843 56.7115 140.117 52.8212 137.654 50.3354C137.009 49.6862 136.304 49.0978 135.627 48.4834L135.53 48.5801L136.243 49.4198C137.176 50.5216 137.6 51.837 137.591 53.2361C137.577 55.2317 136.299 57.1661 134.199 57.667C132.765 58.0093 131.574 57.7164 130.77 56.5402C130.319 55.8813 130.355 54.7279 130.913 54.1851C130.945 54.3275 130.987 54.4345 130.99 54.5432C131.027 55.4365 131.471 56.029 132.296 56.3223C132.905 56.5388 133.368 56.213 133.781 55.884C134.812 55.066 135.556 54.0381 135.762 52.7017C135.954 51.4493 135.74 50.2758 135.007 49.2162C133.707 47.3381 131.833 46.1995 129.864 45.1598C127.822 44.0805 125.839 42.8985 124.189 41.2472C121.982 39.0375 120.984 36.352 121.263 33.2602C121.617 29.3322 123.449 26.1876 126.628 23.8504C127.804 22.9856 129.149 22.4783 130.602 22.2775C130.738 22.2588 130.871 22.2125 131.005 22.1794H132.264C132.339 22.2112 132.416 22.2393 132.493 22.2635L135.192 22.9691C136.085 23.2273 136.954 23.5831 137.857 23.7988C138.745 24.011 139.235 23.5871 139.327 22.6733C139.344 22.508 139.374 22.3438 139.398 22.1792L139.567 22.1807ZM118.074 22.1807C118.094 22.3594 118.131 22.5378 118.131 22.7165L118.143 32.7724C118.14 34.2585 117.103 35.9323 115.41 36.3753C113.869 36.7797 112.191 35.9336 111.78 34.4542C111.68 34.0932 111.68 33.6837 111.722 33.3066C111.768 32.9038 112.074 32.633 112.454 32.5238C112.828 32.4166 113.118 32.6113 113.363 32.9005C113.795 33.4093 113.802 34.0413 113.847 34.6405C113.953 36.0763 115.398 36.3572 116.322 35.6772C117.356 34.9164 117.871 33.8536 117.787 32.5272C117.674 30.7617 116.93 29.2454 115.944 27.8344C115.011 26.5007 113.827 25.4339 112.372 24.6661C108.925 22.8465 104.585 24.0416 102.586 27.3804C100.808 30.3502 101.175 34.4433 103.433 37.1381C104.73 38.6851 106.361 39.8016 108.079 40.8066L114.347 44.4464C115.944 45.4233 117.324 46.6695 118.388 48.232C119.729 50.2007 120.252 52.4112 120.139 54.748C119.984 57.9358 118.765 60.7153 116.538 63.0094C114.166 65.4543 111.253 66.3872 107.874 65.9555C106.225 65.7451 104.652 65.281 103.091 64.7374C102.566 64.5516 102.02 64.4326 101.465 64.3832C100.572 64.3108 100.117 64.7442 100.017 65.6312C100.003 65.7654 99.9531 65.8956 99.9067 66.0791C99.6728 65.7776 99.6246 55.6062 99.837 55.0975C99.9132 55.2361 100.003 55.3249 100.006 55.4166C100.073 57.3347 101.012 58.8503 102.275 60.1868C104.231 62.2591 106.581 63.6894 109.396 64.2739C113.613 65.1491 117.421 62.7704 118.406 58.5789C119.105 55.6113 118.394 52.9354 116.41 50.6152C115.204 49.2054 113.689 48.1733 112.101 47.2514L105.66 43.5738C103.935 42.5383 102.411 41.2491 101.289 39.5413C100.439 38.2439 99.9255 36.8245 99.7906 35.2808C99.4142 30.9647 101.057 27.4569 104.183 24.5828C105.584 23.2936 107.258 22.52 109.16 22.2703C109.252 22.2581 109.34 22.2112 109.429 22.1805H110.772C110.82 22.2062 110.866 22.2395 110.917 22.2533L113.85 23.0358C114.705 23.2795 115.537 23.6067 116.4 23.8113C117.193 23.9992 117.68 23.5978 117.801 22.7911C117.832 22.5868 117.872 22.384 117.907 22.1805L118.074 22.1807ZM203.114 22.1808C203.758 22.2989 204.403 22.3933 205.04 22.5397C207.297 23.0587 209.257 24.1535 210.991 25.6643C211.099 25.7577 211.172 25.9495 211.172 26.096L211.177 32.5919C211.177 32.7147 211.128 32.8374 211.101 32.9602L210.979 32.9638C210.944 32.8279 210.89 32.694 210.876 32.5562C210.682 30.5966 209.889 28.9525 208.384 27.6463C206.765 26.2435 204.99 25.1377 202.891 24.6244C200.004 23.9179 197.342 24.4911 194.92 26.1673C192.687 27.7126 191.217 29.8665 190.194 32.3365C188.664 36.031 188.279 39.8915 188.65 43.8412C189.078 48.4269 190.434 52.7219 192.863 56.6487C194.45 59.2141 196.463 61.3641 199.126 62.8783C202.726 64.9272 207.234 64.5102 210.339 61.7581C210.848 61.3065 211.282 60.7689 211.795 60.2233C212.036 60.5379 212.222 60.7575 212.377 60.9968C212.419 61.0618 212.403 61.2232 212.351 61.2804C209.05 64.8508 204.411 66.9809 199.326 65.68C195.87 64.7961 193.242 62.6864 191.118 59.9044C188.973 57.0938 187.628 53.9087 186.884 50.4703C185.931 46.0759 185.965 41.6777 187.007 37.3037C187.909 33.5133 189.52 30.0583 192.151 27.137C194.353 24.6928 196.999 22.9856 200.289 22.387L201.518 22.1808L203.114 22.1813V22.1808ZM30.458 64.0088L30.8403 64.0323L37.3037 64.0279C39.6087 64.002 41.3283 62.8888 42.5581 61.0111C43.0356 60.2817 43.3636 59.4544 43.7592 58.6716L43.9314 58.3166L44.056 58.3282C44.0709 58.4571 44.116 58.5907 44.0961 58.7149L43.1341 64.7075C43.0859 65.0169 42.9279 65.0467 42.677 65.0455L38.5221 65.0428C31.2612 65.0428 24.0003 65.0404 16.7397 65.0355C16.5467 65.0355 16.3528 64.9293 16.161 64.8725C16.3384 64.8094 16.5116 64.7088 16.6937 64.6892C17.6019 64.5911 18.0087 64.1156 17.7683 63.2465C17.5956 62.6246 17.3143 62.017 16.99 61.4556L10.8071 50.853L6.33276 43.2335C6.259 43.1083 6.11004 43.0271 5.99602 42.926C5.93213 43.0752 5.81244 43.2241 5.81212 43.3732L5.80743 61.5182C5.80633 61.8253 5.83116 62.132 5.88167 62.4349C6.10778 63.7479 7.03713 64.5751 8.37276 64.6946C8.50862 64.7067 8.63494 64.8261 8.76563 64.8958C8.63543 64.9618 8.50555 65.0847 8.3747 65.0853H0.400513C0.265138 65.0853 0.130086 64.9697 -0.00512695 64.9081C0.121514 64.8342 0.243465 64.7067 0.375929 64.6946C1.89336 64.5556 2.90616 63.5047 2.98218 61.9654C2.99092 61.7849 2.98995 61.602 2.98995 61.4205L2.98509 26.8908C2.98509 26.4759 2.95727 26.0481 2.85619 25.6488C2.53546 24.3916 1.70671 23.7343 0.362019 23.5881C0.235863 23.5744 0.119897 23.4683 -0.00108349 23.405C0.120867 23.3421 0.242818 23.2245 0.364284 23.2245L12.4075 23.3201C14.6747 23.3801 16.9155 23.7683 19.0132 24.7151C20.6277 25.4437 21.9614 26.4942 22.685 28.1598C23.8563 30.8579 23.582 34.5074 20.8852 36.8592C19.1659 38.3589 17.1374 39.283 15.0079 39.9981C12.9833 40.6769 10.9315 41.2748 8.89178 41.9089C8.77371 41.9456 8.65661 41.9862 8.48048 42.0441L9.17175 43.2497L14.7673 52.8343L19.7464 61.3251C20.3322 62.3149 21.0071 63.2417 21.9995 63.8801C23.0512 64.5561 24.1937 64.854 25.4352 64.625C26.6151 64.4076 27.3914 63.5859 27.5753 62.3995C27.6242 62.0822 27.6486 61.7614 27.6484 61.4404V26.9524C27.65 26.6733 27.6355 26.3942 27.6049 26.1167C27.4293 24.6156 26.5565 23.7647 25.0451 23.5917C24.916 23.5766 24.7939 23.4793 24.6689 23.4202C24.7978 23.3529 24.9281 23.2266 25.0582 23.2263L41.3847 23.2125C41.666 23.2125 41.7802 23.3089 41.823 23.5823L42.7807 29.5302C42.8023 29.6659 42.7834 29.8079 42.7834 29.947L42.6545 29.981C42.5838 29.8469 42.4999 29.7188 42.4449 29.5786C41.863 28.0573 41.0659 26.6788 39.7892 25.6252C38.8129 24.8202 37.6937 24.3103 36.4247 24.2808C34.4953 24.2344 32.564 24.2627 30.6335 24.2608C30.5935 24.2608 30.5536 24.2799 30.4853 24.2972V43.5652C30.5948 43.5757 30.6894 43.5927 30.7842 43.593L35.9464 43.596C36.9756 43.6008 37.7037 43.1297 38.0608 42.1885C38.2801 41.6092 38.3625 40.9779 38.5027 40.3693C38.5347 40.23 38.5517 40.0856 38.5755 39.9458L38.7108 39.9329C38.7466 40.0586 38.8139 40.1838 38.8139 40.3094V47.9779C38.8139 48.0971 38.7574 48.2162 38.7273 48.3354H38.5963L38.5051 47.937C38.3694 47.3413 38.2928 46.7251 38.0852 46.155C37.7294 45.1787 36.9908 44.6709 35.9312 44.6704C34.2246 44.6704 32.5176 44.6812 30.8109 44.661C30.3938 44.6562 30.4562 44.9013 30.4562 45.1491V64.0094L30.458 64.009V64.0088ZM14.7294 30.0361C14.7763 29.9889 14.8014 29.9402 14.8358 29.9331C16.2724 29.5965 16.5118 28.8396 16.5732 27.5691C16.6318 26.371 15.2978 24.9089 13.9489 24.6147C13.3922 24.4932 12.8225 24.3792 12.2558 24.3638L6.00718 24.2606C5.95558 24.2606 5.90269 24.2831 5.82878 24.3001V42.0379L6.12783 41.9443L11.1587 40.2168C12.9322 39.6196 14.72 39.0603 16.3706 38.1559C17.5087 37.5321 18.5754 36.7987 19.2987 35.7026C20.9141 33.2552 20.9324 30.691 19.6485 28.1156C19.0469 26.9084 17.9983 26.1191 16.7788 25.5629C16.9373 25.7729 17.1031 25.9755 17.2975 26.1478C18.0316 26.7944 18.2018 27.8198 18.9424 28.491C19.3791 28.8868 19.2469 29.4053 18.863 30.0251C18.5688 30.5002 17.9019 30.7289 17.4004 30.63C17.2504 30.6038 17.0958 30.6294 16.962 30.7023C16.1252 31.205 15.2198 30.9498 14.7302 30.036H14.7294V30.0361ZM147.704 26.3163C147.061 26.2565 146.75 26.052 146.715 25.6884C146.679 25.3113 146.906 24.9516 147.225 24.8788C147.672 24.7756 148.192 25.0247 148.342 25.4124C148.532 25.9045 148.236 26.5385 147.66 26.8743C146.956 27.2843 146.252 27.1208 145.818 26.436C145.394 25.7656 145.289 25.0573 145.685 24.3441C146.089 23.6164 146.764 23.2354 147.567 23.2096C148.895 23.1674 150.225 23.2214 151.553 23.2096C151.876 23.207 151.924 23.3961 151.961 23.6205L152.703 28.1224L154.194 37.0781L156.523 51.158L158.284 61.5973C158.507 62.8993 159.139 63.9071 160.412 64.4486C161.908 65.0844 163.661 64.5662 164.269 63.1991C164.499 62.6834 164.586 62.0662 164.59 61.4943L164.603 44.1454L164.588 26.7965C164.586 26.2123 164.473 25.592 164.253 25.0535C163.854 24.0749 162.984 23.7026 161.978 23.5876C161.863 23.5745 161.759 23.4522 161.651 23.3814C161.764 23.3271 161.876 23.2266 161.989 23.2253L167.109 23.2111C167.441 23.208 167.501 23.4346 167.59 23.6416L169.791 28.71L173.335 36.8891L178.339 48.4523L182.526 58.0887C182.56 58.1639 182.604 58.2344 182.687 58.3921C182.709 58.2137 182.73 58.1178 182.73 58.0219V26.7182C182.73 25.6999 182.523 24.7355 181.614 24.1467C181.176 23.8631 180.608 23.7783 180.104 23.5936C179.977 23.5475 179.866 23.4626 179.748 23.3958C179.874 23.3364 179.998 23.2261 180.123 23.2253H186.167C186.293 23.2253 186.419 23.3347 186.546 23.3932C186.431 23.4605 186.319 23.5753 186.198 23.5884C184.568 23.7689 183.612 24.7947 183.547 26.4593C183.541 26.5985 183.544 26.7386 183.544 26.8783V64.384V64.9538C182.911 65.1497 182.774 65.1049 182.543 64.5728L179.557 57.6548C178.769 55.7289 177.627 54.0323 176.432 52.3531C175.334 50.8108 174.016 49.5039 172.421 48.4905C171.273 47.7607 170.03 47.4882 168.678 47.8796C167.878 48.1117 167.347 48.5912 167.071 49.372C167.011 49.5419 166.906 49.6958 166.822 49.8572L166.637 49.8428C166.566 49.4193 166.417 48.9919 166.438 48.5735C166.487 47.6452 166.691 46.7379 167.469 46.1147C167.701 45.9287 168.033 45.8684 168.319 45.7513C168.399 45.7188 168.507 45.7112 168.555 45.6533C169.361 44.6678 170.467 44.613 171.58 45.1436C172.607 45.6335 173.231 46.4679 173.673 47.4809C173.744 47.6427 173.907 47.8041 174.069 47.8788C174.799 48.2184 175.067 48.8893 175.352 49.5599C175.497 49.9008 175.635 50.2525 175.835 50.5606C176.306 51.2866 176.817 51.986 177.365 52.6556L165.552 25.4437L165.461 25.456C165.455 25.6001 165.442 25.7446 165.442 25.8887L165.445 61.4247C165.446 61.8008 165.486 62.1757 165.563 62.5438C165.837 63.822 166.705 64.5702 168.014 64.6865C168.111 64.6951 168.214 64.6907 168.302 64.725C168.352 64.7442 168.405 64.8314 168.402 64.8848C168.399 64.9333 168.327 65.0067 168.276 65.0174C168.154 65.0431 168.025 65.0413 167.9 65.0413H153.588C153.56 65.0454 153.532 65.0449 153.505 65.0397L153.081 64.8825C153.214 64.8172 153.341 64.7061 153.478 64.6934C154.765 64.5759 155.56 63.7911 155.518 62.4999C155.49 61.6133 155.312 60.7289 155.169 59.8482L153.424 49.2382L152.702 44.9884C152.662 44.7385 152.568 44.6634 152.328 44.6646C150.817 44.6717 149.306 44.6754 147.795 44.6617C147.498 44.6591 147.421 44.7854 147.378 45.0456L146.266 51.6483L144.538 61.7931C144.332 62.99 144.791 64.0696 145.741 64.4783C146.028 64.6021 146.364 64.6106 146.671 64.6957C146.782 64.7264 146.874 64.8264 146.975 64.8948C146.871 64.9432 146.768 65.0333 146.665 65.0341L143.055 65.0415C142.258 65.0415 141.46 65.0433 140.663 65.0399C140.513 65.0399 140.364 65.0185 140.214 65.0072L140.163 64.8684C140.277 64.8089 140.388 64.7088 140.508 64.696C142.236 64.5092 143.387 63.5233 143.693 61.808L145.275 52.4408L147.202 41.0106L149.076 29.569L149.609 26.3055C149.812 24.8691 149.055 23.8673 147.665 23.6046C146.637 23.4107 145.609 24.4764 145.884 25.5849C145.947 25.835 146.083 26.0779 146.231 26.2932C146.594 26.8279 147.222 26.8431 147.704 26.3163ZM152.448 43.5694L150.074 29.3816L149.964 29.3846L147.596 43.5694H152.448ZM76.0682 26.3111L75.7845 26.2903C75.2502 26.2183 74.9954 25.8906 75.0976 25.4093C75.1926 24.964 75.6257 24.7449 76.1129 24.8956C76.6 25.0463 76.8488 25.532 76.693 26.0169C76.4813 26.677 75.9888 27.021 75.3391 27.0886C74.7717 27.148 74.3936 26.8036 74.0976 26.3297C73.1453 24.8057 74.4584 23.2389 75.9511 23.2214L80.0222 23.209C80.3538 23.2038 80.4669 23.3351 80.5138 23.6256L81.5452 29.9449L83.278 40.2221L84.7316 49.0169L86.1754 57.8113L86.8415 61.688C87.2401 63.823 88.9712 65.0237 91.0269 64.6148C92.223 64.3768 93.0661 63.3555 93.1502 62.0364C93.1645 61.8135 93.1638 61.5895 93.1638 61.366L93.1536 26.8769C93.1536 26.3301 93.0762 25.756 92.8957 25.2424C92.5293 24.1948 91.6748 23.7375 90.6145 23.5938C90.4681 23.5739 90.3345 23.4576 90.1953 23.3859C90.3358 23.3296 90.4764 23.225 90.6171 23.2245H98.5497C98.6849 23.2245 98.8195 23.3426 98.9545 23.405C98.8323 23.4674 98.7145 23.5726 98.5874 23.5855C97.0161 23.75 96.0515 24.7675 95.9831 26.3504C95.9755 26.5309 95.976 26.7135 95.976 26.8953L95.9852 61.4262C95.9852 61.9468 96.0504 62.4941 96.2195 62.9826C96.5849 64.0368 97.4111 64.5553 98.5012 64.6842C98.6117 64.6972 98.7271 64.692 98.8308 64.725C98.8806 64.741 98.938 64.8282 98.9364 64.8798C98.9351 64.9276 98.8648 65.0038 98.8138 65.0143C98.692 65.04 98.5639 65.04 98.4386 65.04H82.1116C82.0556 65.04 81.9919 65.0567 81.9453 65.0357C81.836 64.9867 81.7346 64.9194 81.6299 64.8594C81.7275 64.8026 81.8222 64.7014 81.9223 64.6959C83.6141 64.6047 84.2729 63.4262 84.045 61.9369L82.7642 54.0897L81.2481 44.9651C81.2345 44.8839 81.2146 44.8037 81.1945 44.709C81.0913 44.6948 80.9964 44.6701 80.9013 44.6701C79.3764 44.6675 77.8516 44.6744 76.3265 44.6625C76.0252 44.66 75.9602 44.8009 75.9173 45.0584L74.3355 54.4669L73.1205 61.7302C73.0604 62.1022 73.0559 62.481 73.1071 62.8543C73.2601 63.9407 73.9771 64.5865 75.0748 64.6828C75.1444 64.6888 75.2233 64.6697 75.2827 64.6962C75.3731 64.7366 75.4504 64.8065 75.5335 64.8638C75.456 64.9218 75.3813 64.9891 75.2958 65.0339C75.2514 65.0572 75.1859 65.0409 75.13 65.0409H69.1701C69.0355 65.0409 68.9009 65.0172 68.7664 65.0043L68.7148 64.8775C68.8178 64.8156 68.9179 64.7054 69.0242 64.6989C70.93 64.5838 72.0374 63.2257 72.3266 61.476L74.3265 49.5499L76.2088 38.0669L77.9979 27.3773C78.0885 26.8293 78.1705 26.2657 78.1419 25.7151C78.0791 24.505 77.4385 23.837 76.244 23.6193C75.4324 23.4717 74.7712 23.7629 74.374 24.4445C74.0088 25.0701 74.1117 25.781 74.6575 26.4082C75.0307 26.8331 75.6747 26.7938 76.0682 26.3111ZM80.999 43.5667L78.6196 29.3264L78.5276 29.3233L76.1523 43.5667H80.999ZM49.2426 50.1215C49.1651 49.7296 49.0176 49.3361 49.0265 48.9463C49.0474 48.0095 49.2827 47.1277 49.9879 46.4429C50.2507 46.1875 50.542 45.9937 50.942 46.0303C51.0248 46.038 51.1482 45.9682 51.1998 45.8965C51.9711 44.8501 53.3234 44.9243 54.3306 45.4891C55.2656 46.0133 55.9062 46.7971 56.2841 47.8034C56.3357 47.9419 56.4857 48.0802 56.6247 48.1432C57.1976 48.4035 57.5988 48.8461 57.7664 49.416C57.9985 50.2073 58.4395 50.86 58.9058 51.5122C59.2353 51.9738 59.542 52.4519 59.9372 52.8867L48.0294 25.4552L47.9384 25.477C47.9317 25.6093 47.9188 25.7418 47.9188 25.8744L47.9306 61.4554C47.9306 62.0286 48.0252 62.6394 48.24 63.1668C48.639 64.1494 49.4826 64.5877 50.5181 64.6938C50.647 64.7065 50.7651 64.8068 50.8881 64.8665C50.7683 64.9247 50.6483 65.0331 50.5271 65.0337H44.483C44.3641 65.0337 44.2457 64.9225 44.1271 64.8628C44.2362 64.8049 44.3411 64.7056 44.4548 64.6944C46.0112 64.5398 46.9749 63.5462 47.064 61.9837C47.0766 61.7606 47.0777 61.537 47.0777 61.3133L47.0752 26.9477C47.0752 26.5867 47.064 26.2178 46.9932 25.8647C46.7138 24.4767 45.9118 23.7618 44.5134 23.5926C44.3757 23.5758 44.2496 23.4655 44.1179 23.3985C44.2543 23.3379 44.3905 23.2253 44.5271 23.2245L49.5221 23.2111C49.7856 23.2095 49.9256 23.297 50.0293 23.5388L53.8562 32.4192L59.8658 46.2381L64.8213 57.6864C64.9097 57.8904 65.0079 58.09 65.1737 58.2926C65.1844 58.1827 65.2043 58.0727 65.2043 57.9629L65.191 26.8243C65.191 26.2387 65.0834 25.6153 64.8625 25.0764C64.4641 24.1052 63.6071 23.707 62.5977 23.5894C62.4736 23.575 62.3604 23.4658 62.242 23.401C62.3625 23.3397 62.4827 23.2256 62.603 23.2248H68.6472C68.7695 23.2248 68.8906 23.3419 69.0125 23.4053C68.8919 23.4691 68.7761 23.5758 68.6498 23.5899C67.1066 23.7644 66.226 24.6426 66.0736 26.1918C66.0435 26.4968 66.0354 26.8052 66.0354 27.1121L66.034 64.4952C66.034 65.0528 65.9824 65.114 65.4438 65.0286C65.3134 65.008 65.1501 64.8717 65.0954 64.7473L62.3643 58.4487C61.4283 56.2122 60.2043 54.1512 58.7287 52.2318C57.5168 50.6558 56.1317 49.2594 54.3254 48.3946C53.2257 47.868 52.0307 47.8 50.8592 48.3048C50.1888 48.5938 49.8637 49.1649 49.5873 49.7857C49.5357 49.9017 49.4687 50.0107 49.4089 50.1229L49.2426 50.1213V50.1215ZM230.191 29.9677L229.67 28.7558C228.979 27.2554 228.043 25.9595 226.595 25.089C225.816 24.6198 224.975 24.2996 224.067 24.2849C222.081 24.2528 220.095 24.275 218.075 24.275V43.5723C218.216 43.5796 218.363 43.5932 218.512 43.5932L223.296 43.6037C224.766 43.6417 225.468 42.9194 225.863 41.6184C225.971 41.2608 225.997 40.8784 226.058 40.5068C226.089 40.3191 226.113 40.1301 226.139 39.9416L226.269 39.9182C226.311 40.0363 226.391 40.1543 226.393 40.2727V47.9838C226.393 48.1018 226.338 48.2197 226.307 48.3378L226.165 48.3362C226.131 48.1591 226.108 47.9792 226.062 47.8054C225.887 47.1497 225.772 46.4668 225.507 45.8493C225.201 45.1394 224.586 44.7087 223.791 44.6984L218.067 44.6903V64.0329H218.557L224.601 64.0369C226.992 64.0612 228.8 63.008 230.092 61.0611C230.582 60.3234 230.919 59.4842 231.323 58.691L231.512 58.3096L231.65 58.3286C231.659 58.4575 231.695 58.5932 231.675 58.7183L230.721 64.6249C230.673 64.9307 230.571 65.0483 230.247 65.0477L212.66 65.035C212.529 65.035 212.398 64.9453 212.267 64.8971C212.393 64.8267 212.514 64.7051 212.645 64.6934C214.158 64.5603 215.125 63.5144 215.214 61.8916C215.225 61.6828 215.222 61.4727 215.222 61.2633L215.22 27.0236C215.22 26.676 215.206 26.3241 215.149 25.9822C214.91 24.5168 214.093 23.7647 212.605 23.5889C212.485 23.5747 212.375 23.46 212.262 23.3932C212.385 23.3347 212.508 23.2252 212.631 23.2248L228.96 23.214C229.203 23.214 229.338 23.262 229.382 23.5417L230.346 29.4906C230.37 29.6392 230.349 29.7947 230.349 29.9467L230.191 29.9677ZM26.857 62.5933C26.6448 61.8832 26.4933 61.2059 26.2416 60.5681C25.5798 58.8922 24.2768 57.8564 22.6491 57.2109C21.7851 56.8685 20.7532 57.2975 20.0092 58.2072C19.9864 58.2389 19.9662 58.2724 19.9487 58.3074C19.8796 58.2749 19.8213 58.2664 19.8116 58.2398C19.4247 57.197 19.4164 55.9381 20.4383 55.124C20.8726 54.7782 21.3568 54.6108 21.92 54.78C22.0102 54.8039 22.1061 54.7928 22.1886 54.7488C23.7614 53.7866 25.1217 55.2516 25.2245 56.4901C25.2502 56.7903 25.365 56.8939 25.5964 57.0401C26.3626 57.5249 26.7957 58.2749 26.8739 59.15C26.9711 60.2418 26.9436 61.3448 26.9641 62.443C26.9649 62.4843 26.9064 62.5268 26.857 62.5933ZM190.4 35.0655L190.738 33.5636C191.38 30.8594 192.823 28.6408 194.929 26.8596C195.567 26.3181 196.281 25.8112 197.186 25.7795C197.416 25.7712 197.66 25.7843 197.879 25.8528C198.239 25.9657 198.398 26.3024 198.16 26.6048C197.735 27.1425 197.267 27.668 196.732 28.0914C195.795 28.8325 194.764 29.4544 193.827 30.1956C192.635 31.1393 191.669 32.2841 191.095 33.7178L190.537 35.0843L190.4 35.0655ZM226.946 62.587C227.016 62.4598 227.061 62.308 227.158 62.2098C228.088 61.279 228.528 60.0983 228.801 58.8615C229.055 57.7146 229.177 56.5391 229.41 55.387C229.489 54.9963 229.668 54.5896 229.911 54.2783C230.239 53.8587 230.655 53.8943 231.022 54.2896C231.609 54.9238 231.64 55.6995 231.507 56.4867C231.287 57.7924 230.537 58.8429 229.733 59.8356C229.017 60.7218 228.2 61.5285 227.423 62.366C227.313 62.4835 227.178 62.5752 227.055 62.6792L226.946 62.587ZM103.813 61.4247L102.796 60.2075C101.584 58.5904 100.79 56.7751 100.279 54.8295C100.111 54.1903 100.036 53.5445 100.23 52.9006C100.295 52.7025 100.398 52.5187 100.532 52.3591C100.963 51.8335 101.61 51.8917 101.92 52.5006C102.062 52.7787 102.172 53.102 102.185 53.4093C102.219 54.1197 102.212 54.8315 102.162 55.541C102.023 57.449 102.472 59.1795 103.614 60.7236C103.736 60.8897 103.846 61.0663 103.956 61.2407C103.965 61.2555 103.943 61.2906 103.935 61.3163L103.813 61.4247ZM22.2352 51.1398C22.7938 50.5318 23.3955 50.4386 24.079 50.6699C24.6648 50.868 24.9451 51.2889 25.0045 51.9012C25.2515 51.9352 25.5062 51.9344 25.7362 52.0089C26.5009 52.2571 26.9494 52.8235 27.0346 53.5941C27.1262 54.4219 27.1121 55.2622 27.1247 56.097C27.1273 56.2763 27.0474 56.4568 26.9382 56.6567C26.2348 54.0802 24.9278 52.0461 22.2352 51.1398ZM173.028 45.1388C172.567 44.6113 172.193 44.1494 171.782 43.7229C171.035 42.9453 169.956 42.7476 168.992 43.1876C168.711 42.8405 168.729 42.451 168.916 42.0932C169.097 41.7512 169.393 41.5464 169.823 41.5369C170.789 41.5152 171.494 41.9907 171.984 42.7384C172.402 43.3723 172.688 44.0914 173.024 44.777C173.057 44.8433 173.028 44.9392 173.028 45.1388ZM195.045 30.5645C195.189 30.3928 195.315 30.2035 195.477 30.0528C195.988 29.5821 196.481 29.0848 197.039 28.6761C197.79 28.1271 198.594 27.654 199.577 27.6502C199.891 27.6502 200.196 27.7123 200.284 28.0395C200.376 28.3793 200.101 28.5918 199.839 28.6998C199.459 28.8561 199.053 29.0154 198.65 29.035C197.301 29.0974 196.187 29.6281 195.244 30.5666C195.212 30.5985 195.161 30.6127 195.119 30.6352L195.045 30.5645ZM232.122 56.7102C231.928 55.8218 232.133 55.0273 232.594 54.3066C232.955 53.741 233.393 53.237 234.074 53.0261C234.152 53.002 234.233 52.9606 234.312 52.9638C234.563 52.9736 234.925 52.8529 234.991 53.1837C235.035 53.4014 234.912 53.736 234.744 53.8956C234.378 54.2468 233.953 54.5457 233.521 54.8191C232.924 55.1986 232.478 55.6769 232.277 56.3663C232.243 56.4865 232.175 56.596 232.122 56.7102ZM170.855 40.4778L169.557 39.9643C169.481 39.9344 169.4 39.9062 169.337 39.8575C169.109 39.6824 168.796 39.5009 168.955 39.168C169.115 38.8352 169.479 38.881 169.773 38.9617C170.514 39.1629 170.906 39.7613 170.855 40.4778Z" fill="#191817"/>
</svg>
